<svg xmlns="http://www.w3.org/2000/svg" width="420" height="840" viewBox="0 0 420 840" role="img" aria-label="Proof of delivery screen">
  <rect width="420" height="840" rx="36" fill="#111827"/>
  <rect x="18" y="18" width="384" height="804" rx="28" fill="#f4f7fb"/>
  <rect x="18" y="18" width="384" height="112" rx="28" fill="#1677ff"/>
  <text x="50" y="84" font-family="Arial, sans-serif" font-size="28" font-weight="700" fill="#fff">POD giao hàng</text>
  <text x="36" y="166" font-family="Arial, sans-serif" font-size="20" font-weight="700" fill="#0f172a">Bằng chứng giao hàng</text>
  <rect x="36" y="190" width="160" height="132" rx="18" fill="#fff" stroke="#d7dee8"/>
  <rect x="56" y="214" width="120" height="76" rx="12" fill="#dbeafe"/>
  <text x="88" y="260" font-family="Arial, sans-serif" font-size="30" fill="#1677ff">📷</text>
  <text x="64" y="306" font-family="Arial, sans-serif" font-size="15" font-weight="700" fill="#0f172a">Ảnh hàng giao</text>
  <rect x="216" y="190" width="160" height="132" rx="18" fill="#fff" stroke="#d7dee8"/>
  <rect x="236" y="214" width="120" height="76" rx="12" fill="#f8fafc" stroke="#cbd5e1"/>
  <path d="M248 266c24-34 46 25 85-13" fill="none" stroke="#0f172a" stroke-width="3" stroke-linecap="round"/>
  <text x="254" y="306" font-family="Arial, sans-serif" font-size="15" font-weight="700" fill="#0f172a">Chữ ký khách</text>
  <rect x="36" y="350" width="348" height="70" rx="16" fill="#fff" stroke="#d7dee8"/>
  <text x="58" y="379" font-family="Arial, sans-serif" font-size="15" fill="#64748b">COD đã thu</text>
  <text x="58" y="405" font-family="Arial, sans-serif" font-size="22" font-weight="700" fill="#0f172a">1.500.000 đ</text>
  <rect x="36" y="446" width="348" height="82" rx="16" fill="#fff" stroke="#d7dee8"/>
  <text x="58" y="478" font-family="Arial, sans-serif" font-size="15" fill="#64748b">Ghi chú giao hàng</text>
  <text x="58" y="506" font-family="Arial, sans-serif" font-size="15" fill="#94a3b8">Khách nhận đủ, không phát sinh...</text>
  <rect x="36" y="568" width="348" height="58" rx="14" fill="#22c55e"/>
  <text x="105" y="605" font-family="Arial, sans-serif" font-size="18" font-weight="700" fill="#fff">Hoàn thành giao hàng</text>
  <rect x="36" y="646" width="348" height="58" rx="14" fill="#fff" stroke="#ef4444"/>
  <text x="126" y="683" font-family="Arial, sans-serif" font-size="18" font-weight="700" fill="#ef4444">Giao thất bại</text>
</svg>
